<?xml version="1.0" encoding="UTF-8" standalone="no"?>
<!DOCTYPE svg PUBLIC "-//W3C//DTD SVG 1.1//EN" "http://www.w3.org/Graphics/SVG/1.1/DTD/svg11.dtd">
<svg width="100%" height="100%" viewBox="0 0 548 492" version="1.1" xmlns="http://www.w3.org/2000/svg" xmlns:xlink="http://www.w3.org/1999/xlink" xml:space="preserve" xmlns:serif="http://www.serif.com/" style="fill-rule:evenodd;clip-rule:evenodd;stroke-linecap:round;stroke-linejoin:round;stroke-miterlimit:1.5;">
    <g transform="matrix(0.75,0,0,0.75,-215.838,-104.655)">
        <g transform="matrix(1,0,0,1,60.5463,-1.39443)">
            <g transform="matrix(1.73668,0,0,1.73668,-58.7564,411.311)">
                <g transform="matrix(400,0,0,400,495.502,155.373)">
                </g>
                <text x="152.914px" y="155.373px" style="font-family:'Athletic-Outfit', 'Athletic Outfit';font-size:400px;">Z</text>
            </g>
            <g transform="matrix(-0.112891,-0.880837,1.45716,-0.186755,211.19,1589.3)">
                <g transform="matrix(400,0,0,400,1405.88,432.603)">
                </g>
                <text x="1049.65px" y="432.603px" style="font-family:'Athletic-Outfit', 'Athletic Outfit';font-size:400px;">B</text>
            </g>
            <g transform="matrix(0.698501,0.000280304,-0.000280304,0.698501,529.95,-83.393)">
                <g transform="matrix(77.7778,0,0,77.7778,611.426,943.664)">
                </g>
                <text x="63.171px" y="943.664px" style="font-family:'AppleGothic';font-size:77.778px;">Zachary Berling</text>
            </g>
            <g transform="matrix(1,0,0,1,0,-3)">
                <path d="M573.097,595.443L956.731,595.443" style="fill:none;stroke:black;stroke-width:1px;"/>
            </g>
            <g transform="matrix(1.02675,0,0,1,-157.684,-51.8063)">
                <g transform="matrix(22.1515,0,0,22.1515,1085.38,665.407)">
                </g>
                <text x="896.031px" y="665.407px" style="font-family:'AquaGrotesque', 'Aqua Grotesque';font-size:22.152px;">Web Developer</text>
            </g>
        </g>
    </g>
</svg>
